<svg width="192" height="68" viewBox="0 0 192 68" fill="none" xmlns="http://www.w3.org/2000/svg">
<path d="M50.3283 22.856C50.3283 26.4827 49.3896 29.8107 47.5123 32.84C45.6349 35.8693 42.9043 38.344 39.3203 40.264C35.7363 42.184 31.4696 43.3147 26.5203 43.656L23.7683 59.08C22.7016 65.0107 19.8003 67.976 15.0643 67.976C12.4616 67.976 10.0509 67.208 7.83225 65.672C5.65625 64.136 3.90692 61.7893 2.58425 58.632C1.26158 55.4747 0.60025 51.592 0.60025 46.984C0.60025 38.3227 1.98692 30.984 4.76025 24.968C7.57625 18.9093 11.3309 14.3867 16.0243 11.4C20.7603 8.37067 25.9656 6.856 31.6403 6.856C35.6509 6.856 39.0429 7.56 41.8163 8.968C44.6323 10.376 46.7443 12.296 48.1523 14.728C49.6029 17.1173 50.3283 19.8267 50.3283 22.856ZM27.6723 37.064C36.4189 35.9547 40.7923 31.4107 40.7923 23.432C40.7923 20.616 39.8536 18.3333 37.9763 16.584C36.1416 14.792 33.2829 13.896 29.4003 13.896C25.0056 13.896 21.1656 15.2827 17.8803 18.056C14.6376 20.8293 12.1203 24.6907 10.3283 29.64C8.57892 34.5467 7.70425 40.1573 7.70425 46.472C7.70425 49.1173 7.96025 51.464 8.47225 53.512C9.02692 55.56 9.70958 57.16 10.5203 58.312C11.3736 59.4213 12.1843 59.976 12.9523 59.976C14.0189 59.976 14.8296 58.504 15.3843 55.56L17.4963 43.464C15.8323 43.208 15.1069 43.1013 15.3203 43.144C14.0403 42.9307 13.2083 42.5467 12.8243 41.992C12.4403 41.3947 12.2483 40.648 12.2483 39.752C12.2483 38.8133 12.5043 38.0667 13.0163 37.512C13.5709 36.9573 14.3176 36.68 15.2563 36.68C15.6829 36.68 16.0029 36.7013 16.2163 36.744C17.2403 36.9147 18.0296 37.0213 18.5843 37.064C19.1389 33.736 19.9283 29.2773 20.9523 23.688C21.2083 22.2373 21.7843 21.2133 22.6803 20.616C23.6189 19.976 24.7069 19.656 25.9443 19.656C27.3523 19.656 28.3549 19.9333 28.9523 20.488C29.5923 21 29.9123 21.832 29.9123 22.984C29.9123 23.6667 29.8696 24.2213 29.7843 24.648L27.6723 37.064ZM76.4843 46.728C77.0389 46.728 77.4656 46.984 77.7643 47.496C78.1056 48.008 78.2763 48.712 78.2763 49.608C78.2763 51.3147 77.8709 52.6373 77.0603 53.576C75.2256 55.8373 73.2203 57.6933 71.0443 59.144C68.9109 60.5947 66.4789 61.32 63.7483 61.32C59.9936 61.32 57.1989 59.6133 55.3643 56.2C53.5723 52.7867 52.6763 48.3707 52.6763 42.952C52.6763 37.7467 53.3376 31.816 54.6603 25.16C56.0256 18.504 58.0096 12.7867 60.6123 8.008C63.2576 3.22933 66.3936 0.839996 70.0203 0.839996C72.0683 0.839996 73.6683 1.8 74.8203 3.72C76.0149 5.59733 76.6123 8.30667 76.6123 11.848C76.6123 16.9253 75.2043 22.8133 72.3883 29.512C69.5723 36.2107 65.7536 42.8453 60.9323 49.416C61.2309 51.1653 61.7216 52.424 62.4043 53.192C63.0869 53.9173 63.9829 54.28 65.0923 54.28C66.8416 54.28 68.3776 53.7893 69.7003 52.808C71.0229 51.784 72.7083 50.056 74.7563 47.624C75.2683 47.0267 75.8443 46.728 76.4843 46.728ZM68.6123 7.176C67.6309 7.176 66.5216 8.94667 65.2843 12.488C64.0469 16.0293 62.9589 20.424 62.0203 25.672C61.0816 30.92 60.5696 35.9547 60.4843 40.776C63.5136 35.784 65.9243 30.792 67.7163 25.8C69.5083 20.7653 70.4043 16.1787 70.4043 12.04C70.4043 8.79733 69.8069 7.176 68.6123 7.176ZM80.3503 61.32C77.7049 61.32 75.5929 60.36 74.0143 58.44C72.4356 56.52 71.6463 54.0027 71.6463 50.888C71.6463 47.4747 72.4356 44.2533 74.0143 41.224C75.5929 38.152 77.6836 35.6987 80.2863 33.864C82.9316 31.9867 85.7263 31.048 88.6703 31.048C89.6089 31.048 90.2276 31.24 90.5263 31.624C90.8676 31.9653 91.1449 32.6053 91.3583 33.544C92.2543 33.3733 93.1929 33.288 94.1743 33.288C96.2649 33.288 97.3103 34.0347 97.3103 35.528C97.3103 36.424 96.9903 38.5573 96.3503 41.928C95.3689 46.8347 94.8783 50.248 94.8783 52.168C94.8783 52.808 95.0276 53.32 95.3263 53.704C95.6676 54.088 96.0943 54.28 96.6063 54.28C97.4169 54.28 98.3983 53.768 99.5503 52.744C100.702 51.6773 102.26 49.9707 104.222 47.624C104.734 47.0267 105.31 46.728 105.95 46.728C106.505 46.728 106.932 46.984 107.23 47.496C107.572 48.008 107.742 48.712 107.742 49.608C107.742 51.3147 107.337 52.6373 106.526 53.576C104.777 55.752 102.921 57.5867 100.958 59.08C98.9956 60.5733 97.0969 61.32 95.2623 61.32C93.8543 61.32 92.5529 60.8507 91.3583 59.912C90.2063 58.9307 89.3316 57.608 88.7343 55.944C86.5156 59.528 83.7209 61.32 80.3503 61.32ZM82.6543 54.856C83.5929 54.856 84.4889 54.3013 85.3423 53.192C86.1956 52.0827 86.8143 50.6107 87.1983 48.776L89.5663 37C87.7743 37.0427 86.1103 37.7253 84.5743 39.048C83.0809 40.328 81.8863 42.0347 80.9903 44.168C80.0943 46.3013 79.6463 48.5627 79.6463 50.952C79.6463 52.2747 79.9023 53.256 80.4143 53.896C80.9689 54.536 81.7156 54.856 82.6543 54.856ZM107.085 61.32C105.463 61.32 104.311 60.4667 103.629 58.76C102.989 57.0533 102.669 54.3227 102.669 50.568C102.669 45.0213 103.458 39.752 105.037 34.76C105.421 33.5227 106.039 32.6267 106.893 32.072C107.789 31.4747 109.026 31.176 110.605 31.176C111.458 31.176 112.055 31.2827 112.397 31.496C112.738 31.7093 112.909 32.1147 112.909 32.712C112.909 33.3947 112.589 34.9307 111.949 37.32C111.522 39.0267 111.181 40.52 110.925 41.8C110.669 43.08 110.455 44.6587 110.285 46.536C111.693 42.8667 113.271 39.88 115.021 37.576C116.77 35.272 118.477 33.6293 120.141 32.648C121.847 31.6667 123.405 31.176 124.813 31.176C127.586 31.176 128.973 32.5627 128.973 35.336C128.973 37 128.503 40.008 127.565 44.36C126.754 48.072 126.349 50.5253 126.349 51.72C126.349 53.4267 126.967 54.28 128.205 54.28C129.058 54.28 130.061 53.768 131.213 52.744C132.407 51.6773 133.986 49.9707 135.949 47.624C136.461 47.0267 137.037 46.728 137.677 46.728C138.231 46.728 138.658 46.984 138.957 47.496C139.298 48.008 139.469 48.712 139.469 49.608C139.469 51.3147 139.063 52.6373 138.253 53.576C136.418 55.8373 134.434 57.6933 132.301 59.144C130.21 60.5947 127.821 61.32 125.133 61.32C122.957 61.32 121.314 60.7013 120.205 59.464C119.095 58.184 118.541 56.3493 118.541 53.96C118.541 52.7653 118.839 50.632 119.437 47.56C119.991 44.872 120.269 43.016 120.269 41.992C120.269 41.3093 120.034 40.968 119.565 40.968C119.01 40.968 118.221 41.6933 117.197 43.144C116.215 44.552 115.191 46.4293 114.125 48.776C113.101 51.1227 112.269 53.5973 111.629 56.2C111.159 58.2053 110.605 59.5707 109.965 60.296C109.367 60.9787 108.407 61.32 107.085 61.32ZM162.835 7.112C163.944 7.112 164.883 7.38933 165.651 7.944C166.419 8.456 166.803 9.096 166.803 9.864C166.803 11.2293 166.376 12.3387 165.523 13.192C164.669 14.0027 163.453 14.408 161.875 14.408C159.4 14.408 157.523 14.4293 156.243 14.472C156.157 14.984 155.773 17.288 155.091 21.384C154.323 25.9493 153.853 28.744 153.683 29.768L152.339 38.152C151.4 44.424 150.653 49.672 150.099 53.896C150.995 53.8533 152.211 53.832 153.747 53.832C156.008 53.832 157.544 54.1307 158.355 54.728C159.165 55.3253 159.571 56.2213 159.571 57.416C159.571 58.5253 159.123 59.464 158.227 60.232C157.373 61 156.157 61.384 154.579 61.384C153.512 61.384 151.827 61.3413 149.523 61.256C147.389 61.1707 145.981 61.128 145.299 61.128C142.611 61.128 139.667 61.3627 136.467 61.832C135.059 62.0453 134.056 62.152 133.459 62.152C132.52 62.152 131.731 61.896 131.091 61.384C130.451 60.872 130.131 60.1253 130.131 59.144C130.131 57.608 130.813 56.4133 132.179 55.56C133.544 54.7067 135.464 54.2587 137.939 54.216L140.947 54.152L141.139 52.744C142.163 45.9173 142.909 41.096 143.379 38.28L144.787 29.896C145.64 24.9467 146.408 19.848 147.091 14.6L141.715 14.664C140.179 14.664 139.112 14.4293 138.515 13.96C137.96 13.448 137.683 12.744 137.683 11.848C137.683 8.94667 139.773 7.38933 143.955 7.176C145.917 7.09066 148.307 7.048 151.123 7.048L162.835 7.112ZM176.538 37.256C176.453 39.3893 176.41 41.0533 176.41 42.248C176.41 45.32 176.56 47.7307 176.858 49.48C177.2 51.1867 177.733 52.424 178.458 53.192C179.226 53.9173 180.272 54.28 181.594 54.28C182.277 54.28 183.088 54.0667 184.026 53.64C184.965 53.2133 185.818 52.6587 186.586 51.976C187.056 51.5493 187.525 51.336 187.994 51.336C188.506 51.336 188.912 51.6347 189.21 52.232C189.552 52.7867 189.722 53.4693 189.722 54.28C189.722 55.0907 189.552 55.88 189.21 56.648C188.912 57.416 188.442 58.056 187.802 58.568C185.584 60.4027 183.066 61.32 180.25 61.32C176.197 61.32 173.232 59.6347 171.354 56.264C169.477 52.8507 168.538 48.4133 168.538 42.952C168.538 41.0747 168.602 39.176 168.73 37.256H166.234C164.954 37.256 164.08 37.0213 163.61 36.552C163.184 36.0827 162.97 35.336 162.97 34.312C162.97 31.9227 163.93 30.728 165.85 30.728H169.498C170.224 26.0347 171.333 21.7467 172.826 17.864C174.32 13.9813 176.112 10.888 178.202 8.584C180.336 6.28 182.618 5.128 185.05 5.128C186.842 5.128 188.25 5.91733 189.274 7.496C190.298 9.07467 190.81 11.0587 190.81 13.448C190.81 20.0613 188.037 25.8213 182.49 30.728H189.658C190.341 30.728 190.832 30.8773 191.13 31.176C191.429 31.4747 191.578 32.0293 191.578 32.84C191.578 35.784 189.168 37.256 184.346 37.256H176.538ZM183.322 11.272C182.682 11.272 181.957 12.0827 181.146 13.704C180.378 15.2827 179.632 17.5013 178.906 20.36C178.224 23.176 177.648 26.312 177.178 29.768C179.696 27.592 181.573 25.16 182.81 22.472C184.09 19.7413 184.73 17.2667 184.73 15.048C184.73 12.5307 184.261 11.272 183.322 11.272Z" fill="black"/>
</svg>
